<svg width="17" height="20" viewBox="0 0 17 20" fill="none" xmlns="http://www.w3.org/2000/svg">
<path d="M8.21798 20.0001C6.47709 19.9692 4.75147 19.9384 3.01058 19.8922C2.30811 19.8614 1.60565 19.7535 0.948996 19.4762C0.322887 19.1988 0.0174671 18.7366 0.00219614 18.0278C-0.0741587 15.0232 1.84998 12.6349 4.29334 11.8028C4.98053 11.5717 5.69827 11.4484 6.416 11.4484C7.65295 11.433 8.87463 11.433 10.1116 11.4484C12.8604 11.4639 15.1663 13.0663 16.1436 15.6395C16.4796 16.5024 16.5712 17.4115 16.5101 18.336C16.4796 18.8136 16.1742 19.1526 15.7618 19.3683C15.1968 19.6765 14.5707 19.8152 13.9293 19.846C12.0968 19.9076 10.249 19.9384 8.4165 19.9847C8.35542 19.9847 8.29433 19.9847 8.21798 19.9847V20.0001Z" fill="#C7C9CE"/>
<path d="M8.08039 7.92212e-05C10.875 0.0154875 13.1504 2.29592 13.1198 5.0386C13.0893 7.8121 10.8139 10.0463 8.03458 10.0309C5.25526 10.0155 2.99515 7.73506 3.0257 4.99237C3.04097 2.21888 5.31634 -0.0153291 8.08039 7.92212e-05Z" fill="#C7C9CE"/>
</svg>
