<svg width="18" height="20" viewBox="0 0 18 20" fill="none" xmlns="http://www.w3.org/2000/svg">
<path fill-rule="evenodd" clip-rule="evenodd" d="M8.47 0.152002C8.62894 0.0526697 8.81258 0 9 0C9.18742 0 9.37107 0.0526697 9.53 0.152002L16.434 4.467L9 8.84L1.566 4.467L8.47 0.152002ZM0.00800363 5.871C0.00255802 5.91378 -0.000114125 5.95687 3.73422e-06 6V14C3.3342e-06 14.1696 0.0431412 14.3364 0.12536 14.4848C0.20758 14.6331 0.326179 14.7581 0.470004 14.848L8 19.554V10.572L0.00800363 5.871ZM10 19.554L17.53 14.848C17.6738 14.7581 17.7924 14.6331 17.8746 14.4848C17.9569 14.3364 18 14.1696 18 14V6C18 5.95667 17.9973 5.91367 17.992 5.871L10 10.571V19.554Z" fill="#C7C9CE"/>
</svg>
