<svg width="17" height="20" viewBox="0 0 17 20" fill="none" xmlns="http://www.w3.org/2000/svg">
<g clip-path="url(#clip0_2211_3170)">
<path d="M13.0851 0H3.82348C1.72133 0 0 1.79365 0 3.98413V16C0 18.2222 1.72133 20 3.82348 20H10.3432C8.88083 19.0635 7.92115 17.381 7.92115 15.4762C7.92115 12.5397 10.2061 10.1587 13.0242 10.1587C14.578 10.1587 15.9794 10.8889 16.9086 12.0317V3.98413C16.9086 1.79365 15.2025 0 13.0851 0ZM6.07796 15.0635C5.87993 15.2698 5.62097 15.3968 5.33154 15.3968H3.50358C2.92473 15.3968 2.43728 14.8889 2.43728 14.2857C2.43728 13.9841 2.55914 13.6984 2.75717 13.5079C2.9552 13.3016 3.21416 13.1746 3.50358 13.1746H5.33154C5.91039 13.1746 6.39785 13.6667 6.39785 14.2857C6.39785 14.5873 6.27599 14.873 6.07796 15.0635ZM8.21057 10.7778C8.01255 10.9841 7.75358 11.1111 7.46416 11.1111H3.50358C2.92473 11.1111 2.43728 10.6032 2.43728 10C2.43728 9.69841 2.55914 9.4127 2.75717 9.22222C2.9552 9.01587 3.21416 8.88889 3.50358 8.88889H7.46416C8.04301 8.88889 8.53047 9.38095 8.53047 10C8.53047 10.3016 8.4086 10.5873 8.21057 10.7778ZM14.6084 6.49206C14.4104 6.69841 14.1514 6.8254 13.862 6.8254H3.50358C2.92473 6.8254 2.43728 6.31746 2.43728 5.71429C2.43728 5.4127 2.55914 5.12698 2.75717 4.93651C2.9552 4.73016 3.21416 4.60317 3.50358 4.60317H13.862C14.4409 4.60317 14.9283 5.09524 14.9283 5.71429C14.9283 6.01587 14.8065 6.30159 14.6084 6.49206Z" fill="#C7C9CE"/>
<path d="M13.0246 11.3333C10.8311 11.3333 9.04883 13.1905 9.04883 15.4762C9.04883 17.7619 10.8311 19.619 13.0246 19.619C14.8983 19.619 16.4825 18.2539 16.8938 16.4286C16.909 16.2857 16.909 16.1587 16.909 16.0159V14.619C16.5282 12.746 14.9288 11.3333 13.0246 11.3333ZM14.9745 17.2857C14.8831 17.3968 14.746 17.4603 14.6241 17.4603C14.5175 17.4603 14.4261 17.4286 14.3347 17.3492L12.659 15.9206C12.5524 15.8412 12.4915 15.6984 12.4915 15.5555V13.0159C12.4915 12.746 12.6895 12.5397 12.9485 12.5397C13.2074 12.5397 13.4055 12.746 13.4055 13.0159V15.3333L14.9135 16.619C15.1116 16.7778 15.142 17.0793 14.9745 17.2857Z" fill="#C7C9CE"/>
<path d="M16.909 14.619C16.5282 12.746 14.9288 11.3333 13.0246 11.3333C10.8311 11.3333 9.04883 13.1905 9.04883 15.4762C9.04883 17.7619 10.8311 19.619 13.0246 19.619C14.8983 19.619 16.4825 18.2539 16.8938 16.4286C16.97 16.127 17.0004 15.8095 17.0004 15.492C17.0004 15.1746 16.97 14.8889 16.909 14.619ZM14.9745 17.2857C14.8831 17.3968 14.746 17.4603 14.6241 17.4603C14.5175 17.4603 14.4261 17.4286 14.3347 17.3492L12.659 15.9206C12.5524 15.8412 12.4915 15.6984 12.4915 15.5555V13.0159C12.4915 12.746 12.6895 12.5397 12.9485 12.5397C13.2074 12.5397 13.4055 12.746 13.4055 13.0159V15.3333L14.9135 16.619C15.1116 16.7778 15.142 17.0793 14.9745 17.2857Z" fill="#C7C9CE"/>
<path d="M16.909 14.619C16.5282 12.746 14.9288 11.3333 13.0246 11.3333C10.8311 11.3333 9.04883 13.1905 9.04883 15.4762C9.04883 17.7619 10.8311 19.619 13.0246 19.619C14.8983 19.619 16.4825 18.2539 16.8938 16.4286C16.97 16.127 17.0004 15.8095 17.0004 15.492C17.0004 15.1746 16.97 14.8889 16.909 14.619ZM14.9745 17.2857C14.8831 17.3968 14.746 17.4603 14.6241 17.4603C14.5175 17.4603 14.4261 17.4286 14.3347 17.3492L12.659 15.9206C12.5524 15.8412 12.4915 15.6984 12.4915 15.5555V13.0159C12.4915 12.746 12.6895 12.5397 12.9485 12.5397C13.2074 12.5397 13.4055 12.746 13.4055 13.0159V15.3333L14.9135 16.619C15.1116 16.7778 15.142 17.0793 14.9745 17.2857Z" fill="#C7C9CE"/>
</g>
<defs>
<clipPath id="clip0_2211_3170">
<rect width="17" height="20" fill="white"/>
</clipPath>
</defs>
</svg>
